<svg width="24" height="20" viewBox="0 0 24 20" fill="none" xmlns="http://www.w3.org/2000/svg">
<g clip-path="url(#clip0_6_352)">
<path d="M3.19031 8.27598V20H20.4602V8.27598L11.8253 2.8064L3.19031 8.27598ZM19.1462 18.6813H4.51019V9.00221L11.8253 4.36796L19.1403 9.00221L19.1462 18.6813Z" fill="black"/>
<path d="M11.8253 0L0.75 7.01707L1.45628 8.13164L11.8253 1.56157L22.1942 8.13164L22.9005 7.01707L11.8253 0Z" fill="black"/>
<path d="M11.9965 15.9335C11.1647 15.9346 10.3565 15.6571 9.70071 15.1454C9.04494 14.6336 8.57939 13.9171 8.3783 13.1099C8.1772 12.3028 8.25214 11.4516 8.59116 10.692C8.93019 9.93237 9.51377 9.30815 10.2489 8.91885C10.984 8.52955 11.8282 8.39758 12.6471 8.54399C13.4659 8.69039 14.2121 9.10674 14.7668 9.72664C15.3214 10.3465 15.6526 11.1343 15.7074 11.9643C15.7622 12.7943 15.5375 13.6188 15.0692 14.3062L15.7192 14.9562C16.4119 14.0152 16.7233 12.8471 16.591 11.6862C16.4586 10.5252 15.8922 9.45719 15.0053 8.69632C14.1185 7.93546 12.9768 7.53799 11.8092 7.58361C10.6416 7.62924 9.53445 8.11458 8.7097 8.94232C7.88495 9.77007 7.40362 10.879 7.36222 12.0468C7.32083 13.2145 7.72243 14.3547 8.4865 15.2388C9.25057 16.1229 10.3206 16.6854 11.482 16.8136C12.6435 16.9418 13.8104 16.6261 14.7489 15.93L14.099 15.28C13.4807 15.7062 12.7474 15.9342 11.9965 15.9335Z" fill="#EA2227"/>
<path d="M11.9966 14.0787C11.5956 14.0795 11.205 13.9509 10.8828 13.712C10.5607 13.4732 10.3242 13.1369 10.2083 12.7529C10.0925 12.369 10.1036 11.958 10.2399 11.5808C10.3762 11.2037 10.6304 10.8805 10.9649 10.6594C11.2995 10.4382 11.6964 10.3308 12.0968 10.3531C12.4972 10.3754 12.8797 10.5262 13.1876 10.7831C13.4955 11.0401 13.7123 11.3894 13.8059 11.7794C13.8995 12.1693 13.8649 12.579 13.7071 12.9477L14.3841 13.6235C14.727 13.0415 14.8457 12.3543 14.7179 11.6909C14.5901 11.0275 14.2245 10.4337 13.6899 10.0207C13.1553 9.60772 12.4883 9.40409 11.8141 9.44801C11.14 9.49193 10.5051 9.78038 10.0286 10.2592C9.55203 10.7381 9.26665 11.3744 9.22598 12.0487C9.18531 12.723 9.39216 13.389 9.8077 13.9217C10.2232 14.4543 10.8189 14.817 11.4829 14.9416C12.1468 15.0662 12.8334 14.9442 13.4138 14.5985L12.7392 13.9227C12.5051 14.0255 12.2523 14.0787 11.9966 14.0787Z" fill="#EA2227"/>
<path d="M18.0774 17.1105L17.7618 16.7855L16.6343 15.6416C16.6263 15.6321 16.6158 15.625 16.604 15.6211C16.5922 15.6172 16.5796 15.6165 16.5674 15.6193C16.3328 15.6521 16.1075 15.6826 15.8788 15.7167C15.8669 15.7187 15.8548 15.7175 15.8436 15.7132C15.8325 15.7088 15.8227 15.7015 15.8154 15.692L15.1044 14.981L14.7114 14.588L14.3137 14.1962L14.1565 14.0389L13.9852 13.8677L13.7634 13.6459L13.3704 13.2576L12.8237 12.712C12.8191 12.7088 12.8152 12.7046 12.8122 12.6998C12.8092 12.695 12.8072 12.6897 12.8063 12.6841C12.8055 12.6785 12.8057 12.6728 12.8071 12.6673C12.8084 12.6619 12.8109 12.6567 12.8143 12.6522C12.9033 12.4859 12.939 12.2962 12.9164 12.109C12.8927 11.9124 12.8068 11.7286 12.6711 11.5844C12.5354 11.4402 12.3571 11.3433 12.1623 11.3077C11.9676 11.2722 11.7665 11.3 11.5887 11.3871C11.4108 11.4741 11.2656 11.6158 11.1741 11.7914C11.0826 11.967 11.0498 12.1673 11.0804 12.3629C11.111 12.5585 11.2035 12.7392 11.3442 12.8784C11.485 13.0177 11.6666 13.1082 11.8625 13.1367C12.0585 13.1653 12.2584 13.1303 12.433 13.037C12.4382 13.0329 12.4441 13.0298 12.4505 13.0281C12.4569 13.0263 12.4636 13.0259 12.4702 13.0267C12.4768 13.0276 12.4831 13.0298 12.4888 13.0332C12.4945 13.0366 12.4995 13.0411 12.5034 13.0464L13.0325 13.5755C13.1639 13.7069 13.2941 13.8383 13.4255 13.9686C13.5569 14.0988 13.6872 14.2314 13.8186 14.3616L13.9758 14.5188C14.1072 14.6502 14.2374 14.7816 14.3688 14.9118L14.7618 15.306L15.4892 16.0323C15.5004 16.042 15.5088 16.0545 15.5136 16.0685C15.5183 16.0825 15.5192 16.0975 15.5162 16.112C15.4834 16.3385 15.4529 16.5649 15.4224 16.7913C15.4218 16.8067 15.4268 16.8217 15.4364 16.8336L16.05 17.4566L16.795 18.2109L16.9124 18.3283C16.9124 18.3142 16.9124 18.306 16.9194 18.2989C16.964 17.9704 17.0097 17.6419 17.0532 17.3134C17.0532 17.29 17.0637 17.2794 17.0895 17.2759C17.289 17.2501 17.4884 17.2207 17.6867 17.1926L18.0938 17.1363L18.0774 17.1105Z" fill="black"/>
</g>
<defs>
<clipPath id="clip0_6_352">
<rect width="22.5" height="20" fill="white" transform="translate(0.75)"/>
</clipPath>
</defs>
</svg>
